HIERARCHY
ROOT Hips
{
	OFFSET 0.000000 0.000000 0.000000 
	CHANNELS 6 Xposition Yposition Zposition Zrotation Yrotation Xrotation
	JOINT LeftUpLeg
	{
		OFFSET 1.363060 -1.794630 0.839290 
		CHANNELS 3 Zrotation Yrotation Xrotation
		JOINT LeftLeg
		{
			OFFSET 2.448110 -6.726130 0.000000 
			CHANNELS 3 Zrotation Yrotation Xrotation
			JOINT LeftFoot
			{
				OFFSET 2.562200 -7.039590 0.000000 
				CHANNELS 3 Zrotation Yrotation Xrotation
				JOINT LeftToeBase
				{
					OFFSET 0.157640 -0.433110 2.322550 
					CHANNELS 3 Zrotation Yrotation Xrotation
					End Site
					{
						OFFSET 0.000000 0.000000 0.000000 
					}
				}
			}
		}
	}
	JOINT RightUpLeg
	{
		OFFSET -1.305520 -1.794630 0.839290 
		CHANNELS 3 Zrotation Yrotation Xrotation
		JOINT RightLeg
		{
			OFFSET -2.542530 -6.985550 0.000000 
			CHANNELS 3 Zrotation Yrotation Xrotation
			JOINT RightFoot
			{
				OFFSET -2.568260 -7.056230 0.000000 
				CHANNELS 3 Zrotation Yrotation Xrotation
				JOINT RightToeBase
				{
					OFFSET -0.164730 -0.452590 2.363150 
					CHANNELS 3 Zrotation Yrotation Xrotation
					End Site
					{
						OFFSET 0.000000 0.000000 0.000000 
					}
				}
			}
		}
	}
	JOINT Spine
	{
		OFFSET 0.028270 2.035590 -0.193380 
		CHANNELS 3 Zrotation Yrotation Xrotation
		JOINT Spine1
		{
			OFFSET 0.056720 2.048850 -0.042750 
			CHANNELS 3 Zrotation Yrotation Xrotation
			JOINT Neck1
			{
				OFFSET -0.054170 1.746240 0.172020 
				CHANNELS 3 Zrotation Yrotation Xrotation
				JOINT Head
				{
					OFFSET 0.104070 1.761360 -0.123970 
					CHANNELS 3 Zrotation Yrotation Xrotation
					End Site
					{
						OFFSET 0.000000 0.000000 0.000000 
					}
				}
			}
			JOINT LeftArm
			{
				OFFSET 3.362410 1.200890 -0.311210 
				CHANNELS 3 Zrotation Yrotation Xrotation
				JOINT LeftForeArm
				{
					OFFSET 4.983000 -0.000000 -0.000000 
					CHANNELS 3 Zrotation Yrotation Xrotation
					JOINT LeftHand
					{
						OFFSET 3.483560 -0.000000 -0.000000 
						CHANNELS 3 Zrotation Yrotation Xrotation
						JOINT LeftHandIndex1
						{
							OFFSET 0.715260 -0.000000 -0.000000 
							CHANNELS 3 Zrotation Yrotation Xrotation
							End Site
							{
								OFFSET 0.000000 0.000000 0.000000 
							}
						}
					}
				}
			}
			JOINT RightArm
			{
				OFFSET -3.136600 1.374050 -0.404650 
				CHANNELS 3 Zrotation Yrotation Xrotation
				JOINT RightForeArm
				{
					OFFSET -5.241900 -0.000000 -0.000000 
					CHANNELS 3 Zrotation Yrotation Xrotation
					JOINT RightHand
					{
						OFFSET -3.444170 -0.000000 -0.000000 
						CHANNELS 3 Zrotation Yrotation Xrotation
						JOINT RightHandIndex1
						{
							OFFSET -0.622530 -0.000000 -0.000000 
							CHANNELS 3 Zrotation Yrotation Xrotation
							End Site
							{
								OFFSET 0.000000 0.000000 0.000000 
							}
						}
					}
				}
			}
		}
	}
}
MOTION
Frames: 15
Frame Time: 0.041667
-0.478883 18.383124 5.330386 -1.351297 -5.984241 0.711770 -13.210700 -8.949962 -5.732622 0.802664 6.865909 22.949500 -1.397850 10.791942 -18.171693 7.698900 -15.893300 -51.470800 2.723762 2.007934 -1.535702 0.055864 0.858218 1.465712 0.340460 -0.781651 5.924813 0.000000 0.000000 0.000000 -10.489587 0.680003 32.405363 2.736854 0.603486 -15.704208 3.696776 -3.035957 38.113418 -0.028000 -0.128500 13.283700 -41.596418 -26.840844 38.098698 70.254766 -56.488479 -39.159839 0.505815 0.634745 -12.492594 -7.125000 0.000000 0.000000 82.042495 19.009325 71.065399 -111.521470 51.879435 -73.139407 1.137561 0.264869 3.613842 7.125000 0.000000 0.000000 
-0.486337 18.383712 5.334113 -1.421327 -6.081367 0.650066 -13.187561 -8.924202 -5.544527 0.795946 6.826439 22.877727 -1.340164 10.612679 -18.290826 7.701400 -15.895100 -51.479700 2.735294 2.003551 -1.541416 0.054738 0.852454 1.462713 0.338689 -0.788388 5.924506 0.000000 0.000000 0.000000 -9.616964 0.547914 32.599182 2.622076 0.630995 -15.801708 3.487315 -3.039889 38.267747 -0.078500 -0.170200 13.320100 -40.443397 -26.562510 38.363398 70.028204 -56.462802 -38.948393 0.508443 0.613127 -12.256944 -7.125000 0.000000 0.000000 82.267677 18.795172 71.667153 -109.936735 52.279851 -71.375355 1.160718 0.194061 3.355382 7.125000 0.000000 0.000000 
-0.489083 18.384399 5.334211 -1.512211 -6.201075 0.573748 -13.146630 -8.932732 -5.364359 0.791738 6.801230 22.836532 -1.285171 10.461532 -18.452414 7.602400 -15.818800 -51.117400 2.743054 2.001721 -1.545011 0.053660 0.849616 1.461275 0.337798 -0.791861 5.924785 0.000000 0.000000 0.000000 -8.919422 0.476696 32.809308 2.448485 0.650014 -15.856918 3.273260 -3.037110 38.314520 -0.140600 -0.205400 13.338000 -39.634756 -26.414307 38.740104 69.345963 -56.372739 -38.370242 0.512584 0.597165 -11.761014 -7.125000 0.000000 0.000000 82.439439 18.686640 71.889272 -108.253298 52.710855 -69.515294 1.193422 0.108912 3.249180 7.125000 0.000000 0.000000 
-0.486239 18.383320 5.331171 -1.529275 -6.296671 0.489933 -13.204940 -8.823577 -5.300264 0.791447 6.790651 22.830622 -1.296446 10.506097 -18.459429 7.624300 -15.835800 -51.197700 2.747648 2.001682 -1.546800 0.052702 0.849014 1.460893 0.337447 -0.792900 5.925515 0.000000 0.000000 0.000000 -8.386282 0.428531 33.048910 2.293889 0.657275 -15.878449 3.073186 -3.014643 38.284507 -0.195700 -0.230300 13.362700 -39.216486 -26.371159 39.114004 68.582617 -56.262497 -37.735184 0.519743 0.582449 -11.248942 -7.125000 0.000000 0.000000 82.416119 18.876733 71.756707 -106.620549 53.143257 -67.746314 1.226015 0.036188 3.119311 7.125000 0.000000 0.000000 
-0.482708 18.381849 5.327150 -1.533960 -6.282150 0.419732 -13.261240 -8.717353 -5.300475 0.795460 6.787622 22.839980 -1.316514 10.547153 -18.367323 7.673700 -15.873900 -51.378600 2.750776 2.002023 -1.547044 0.051836 0.849284 1.460829 0.337333 -0.793043 5.926488 0.000000 0.000000 0.000000 -7.926341 0.342068 33.238439 2.145087 0.635001 -15.928028 3.067734 -3.035407 38.232967 -0.177100 -0.258400 13.373300 -39.218159 -26.343154 39.579752 68.055038 -56.180323 -37.296563 0.527562 0.569128 -11.074501 -7.125000 0.000000 0.000000 82.237900 19.141390 71.386493 -105.266137 53.508979 -66.314911 1.247284 -0.013077 2.849900 7.125000 0.000000 0.000000 
-0.480551 18.380672 5.323031 -1.570527 -6.219261 0.382175 -13.249929 -8.676998 -5.320291 0.799934 6.789428 22.847985 -1.320869 10.525108 -18.264534 7.688300 -15.885100 -51.431900 2.751411 2.002973 -1.545525 0.051239 0.850620 1.461344 0.337637 -0.791911 5.927492 0.000000 0.000000 0.000000 -7.648110 0.269550 33.307885 1.996636 0.596353 -15.999594 3.042265 -3.043879 38.263093 -0.170800 -0.276400 13.389500 -39.580917 -26.285211 40.187102 67.730148 -56.126994 -37.020563 0.530403 0.565617 -11.149763 -7.125000 0.000000 0.000000 82.085352 19.260389 70.856606 -104.272012 53.773193 -65.281740 1.256431 -0.053129 2.745914 7.125000 0.000000 0.000000 
-0.479080 18.380182 5.321167 -1.593358 -6.138145 0.322315 -13.248092 -8.702215 -5.283542 0.802731 6.790164 22.853341 -1.315357 10.487868 -18.218656 7.706000 -15.898700 -51.496800 2.750994 2.004348 -1.544571 0.050852 0.852151 1.462112 0.338058 -0.790379 5.928203 0.000000 0.000000 0.000000 -7.507917 0.228476 33.386731 1.885930 0.561366 -16.018481 2.887997 -3.025146 38.315138 -0.220400 -0.287700 13.425700 -40.260330 -26.287504 40.828543 67.429901 -56.072252 -36.764416 0.533689 0.565783 -11.262856 -7.125000 0.000000 0.000000 81.955575 19.219475 70.185400 -103.709209 53.913565 -64.723478 1.250240 -0.077484 3.103918 7.125000 0.000000 0.000000 
-0.476039 18.380182 5.321854 -1.545235 -5.988897 0.247545 -13.347799 -8.745837 -5.237399 0.806982 6.787391 22.865751 -1.317336 10.478076 -18.166824 7.745500 -15.928800 -51.640700 2.753178 2.004566 -1.546117 0.050376 0.851944 1.461984 0.337883 -0.790763 5.928516 0.000000 0.000000 0.000000 -7.278190 0.119512 33.561251 1.827042 0.508967 -15.954484 2.965234 -3.034167 38.364929 -0.172700 -0.293900 13.486400 -41.308089 -26.400390 41.386445 66.907808 -55.974059 -36.332444 0.542942 0.562388 -11.151998 -7.125000 0.000000 0.000000 81.607094 19.238891 69.518936 -103.359588 53.994593 -64.415863 1.243833 -0.088997 3.613490 7.125000 0.000000 0.000000 
-0.472313 18.378907 5.322540 -1.457143 -5.832095 0.184956 -13.479464 -8.699119 -5.241009 0.817540 6.787574 22.891285 -1.298856 10.370613 -18.057465 7.750100 -15.932400 -51.657600 2.755641 2.004252 -1.548034 0.049999 0.851198 1.461528 0.337493 -0.791734 5.928636 0.000000 0.000000 0.000000 -7.087439 -0.020650 33.727788 1.817043 0.440213 -15.865431 3.067944 -3.000046 38.449234 -0.099700 -0.281600 13.559800 -42.613928 -26.597622 41.887690 66.184338 -55.838075 -35.741957 0.552920 0.560470 -10.783799 -7.125000 0.000000 0.000000 81.033158 19.438209 68.848591 -103.045552 54.066212 -64.150783 1.252697 -0.112280 4.100717 7.125000 0.000000 0.000000 
-0.469272 18.377926 5.322933 -1.391856 -5.680842 0.155495 -13.540068 -8.612456 -5.293210 0.830457 6.791606 22.915762 -1.260311 10.171230 -17.905224 7.721700 -15.910700 -51.554100 2.754224 2.005284 -1.547595 0.049980 0.852425 1.462033 0.337719 -0.790457 5.928963 0.000000 0.000000 0.000000 -7.159199 -0.113072 33.847179 1.836145 0.359882 -15.727197 2.953598 -2.891393 38.427475 -0.117500 -0.250600 13.578900 -43.953546 -26.895800 42.370484 65.459120 -55.694297 -35.148472 0.562602 0.558973 -10.421987 -7.125000 0.000000 0.000000 80.428952 19.790787 68.121463 -102.769365 54.128362 -63.930875 1.255469 -0.128499 4.498154 7.125000 0.000000 0.000000 
-0.467311 18.379299 5.321462 -1.384822 -5.402547 0.188939 -13.495753 -8.584992 -5.451141 0.845430 6.797039 22.933872 -1.220510 9.921307 -17.635063 7.709400 -15.901300 -51.509200 2.750846 2.007661 -1.545574 0.049914 0.855414 1.463334 0.338373 -0.787339 5.929819 0.000000 0.000000 0.000000 -7.298217 -0.249966 34.013222 1.821760 0.227126 -15.488750 2.876294 -2.780361 38.329083 -0.134300 -0.206700 13.591200 -45.214979 -27.357431 42.769881 64.747854 -55.542511 -34.561178 0.572947 0.557891 -10.240248 -7.125000 0.000000 0.000000 79.831492 20.447963 67.409141 -102.294808 54.247394 -63.511073 1.250115 -0.132959 4.620473 7.125000 0.000000 0.000000 
-0.466723 18.379593 5.316754 -1.353784 -5.075909 0.203946 -13.453366 -8.555913 -5.653038 0.859990 6.812469 22.965733 -1.241274 9.859865 -17.239969 7.786100 -15.959700 -51.788700 2.743493 2.012101 -1.541069 0.050050 0.861017 1.465960 0.339784 -0.781304 5.931119 0.000000 0.000000 0.000000 -7.689875 -0.341866 34.159206 1.800367 0.082669 -15.240793 2.971359 -2.735052 38.261162 -0.109600 -0.161500 13.643100 -46.312026 -27.971178 43.150121 64.017519 -55.381773 -33.959801 0.582259 0.559614 -10.170008 -7.125000 0.000000 0.000000 79.359611 21.086869 66.696675 -101.940483 54.336216 -63.218680 1.257834 -0.130478 4.841755 7.125000 0.000000 0.000000 
-0.468096 18.377828 5.312831 -1.299705 -4.818858 0.172829 -13.429465 -8.510654 -5.779952 0.873060 6.834083 23.008299 -1.284885 9.900538 -16.871710 7.830200 -15.993000 -51.948900 2.733592 2.017426 -1.535360 0.050494 0.867722 1.469250 0.341644 -0.773893 5.932352 0.000000 0.000000 0.000000 -8.305050 -0.332269 34.232649 1.796136 -0.025401 -15.043186 3.098512 -2.740159 38.165747 -0.092400 -0.128900 13.678800 -47.293917 -28.666451 43.545920 63.316131 -55.222285 -33.383335 0.592557 0.557612 -10.121890 -7.125000 0.000000 0.000000 79.011317 21.444726 66.007220 -102.056836 54.299302 -63.412899 1.260700 -0.115650 5.256114 7.125000 0.000000 0.000000 
-0.471038 18.378318 5.310576 -1.390937 -4.603059 0.178062 -13.266037 -8.592974 -5.827410 0.888317 6.847215 23.041731 -1.224084 9.614043 -16.721127 7.899100 -16.044500 -52.198500 2.729868 2.019809 -1.532898 0.050489 0.870732 1.470688 0.342482 -0.770655 5.933108 0.000000 0.000000 0.000000 -8.479850 -0.408459 34.311667 1.752484 -0.123023 -14.946751 2.997906 -2.669158 38.068717 -0.132100 -0.101200 13.680900 -48.260281 -29.318565 43.887829 62.725376 -55.085540 -32.903529 0.600547 0.555601 -10.141072 -7.125000 0.000000 0.000000 78.568781 21.729862 65.407051 -102.397546 54.204193 -63.825855 1.237200 -0.102961 5.541229 7.125000 0.000000 0.000000 
-0.474274 18.379299 5.306555 -1.570127 -4.398079 0.209189 -13.056693 -8.616459 -5.948256 0.903781 6.858930 23.077901 -1.194871 9.429987 -16.526357 7.890700 -16.038300 -52.168100 2.732138 2.018922 -1.532880 0.050089 0.870054 1.470097 0.342203 -0.771694 5.933501 0.000000 0.000000 0.000000 -8.214636 -0.602369 34.358763 1.720218 -0.213554 -15.016616 2.747325 -2.530305 38.050858 -0.194800 -0.074000 13.671300 -49.088810 -29.823953 44.201113 62.315684 -54.995627 -32.582296 0.600907 0.560158 -10.327780 -7.125000 0.000000 0.000000 78.035970 21.939790 64.932430 -102.852317 54.086226 -64.345043 1.215455 -0.096646 5.510305 7.125000 0.000000 0.000000 
